# xmcd
#
# Track frame offsets:
#	150
#	11167
#	23575
#	40662
#	57140
#	78115
#	92162
#	108075
#	135722
#	160635
#	177932
#	192687
#	206372
#	222272
#	240712
#	250587
#
# Disc length: 3536
#
# Revision: 1
# Processed by: cddbd v1.5.1PL0 Copyright (c) Steve Scherf et al.
# Submitted via: dBpowerAMP V4.0
# Normalized: r0:TDELIM( - )
#
DISCID=c70dce10
DTITLE=Various Artist - Soul Train - Into The Land Of 1000 Dances CD1
DYEAR=1900
DGENRE=soul
TTITLE0=Wilson Pickett - Land Of 1000 Dances
TTITLE1=Otis Readding - (Sittin' On) The Dock Of The Bay
TTITLE2=Curtis Mayfield - Move On Up
TTITLE3=Lou Rawis - Lady Love
TTITLE4=Gladys Knight and The Pips - Midnight Train To Georgia
TTITLE5=Aaron Neville - Tell It Like It Is
TTITLE6=Melba Moore - This Is It
TTITLE7=Bobby Wilson - Deeper And Deeper
TTITLE8=Phyllis Hyman - One Thing On My Mind
TTITLE9=Norman Connors - Valantine Love
TTITLE10=P.P. Arnold - The First Cut Is The Deepest
TTITLE11=Three Degrees - Dirty Old Man
TTITLE12=Gladys Knight and The Pips - I Love To Feel That Feeling
TTITLE13=Michael Henderson - You Haven't Made It To The Top
TTITLE14=Chris Kenner - I Like It Like That (Part 1)
TTITLE15=5 Stairsteps - Ooh Child
EXTD=tim1701
EXTT0=
EXTT1=
EXTT2=
EXTT3=
EXTT4=
EXTT5=
EXTT6=
EXTT7=
EXTT8=
EXTT9=
EXTT10=
EXTT11=
EXTT12=
EXTT13=
EXTT14=
EXTT15=
PLAYORDER=
